<svg width="280" height="280" viewBox="0 0 280 280" fill="none" xmlns="http://www.w3.org/2000/svg">
<g clip-path="url(#clip0)">
<path d="M242.765 2.8875C241.103 1.05 238.758 0 236.273 0H43.773C41.3055 0 38.943 1.05 37.2805 2.8875C35.6355 4.7075 34.813 7.1575 35.058 9.625L61.308 272.125C61.763 276.605 65.5255 280 70.023 280H210.023C214.52 280 218.283 276.605 218.72 272.125L244.97 9.625C245.233 7.1575 244.428 4.7075 242.765 2.8875Z" fill="#ECEFF1"/>
<path d="M219.455 89.25L202.13 262.5H77.8805L58.4555 68.775C80.3305 61.775 113.58 57.05 140.005 78.75C165.555 99.75 197.755 95.9 219.455 89.25Z" fill="#2196F3"/>
</g>
<defs>
<clipPath id="clip0">
<rect width="280" height="280" fill="white"/>
</clipPath>
</defs>
</svg>
